<svg width="208" height="54" viewBox="0 0 208 54" fill="none" xmlns="http://www.w3.org/2000/svg">
<path d="M5.96292 0.559999C6.52292 0.559999 6.83092 0.895998 6.83092 1.456V20.104C6.83092 20.664 6.52292 21 5.96292 21H3.69492C3.13492 21 2.79892 20.664 2.79892 20.104V1.456C2.79892 0.895998 3.13492 0.559999 3.69492 0.559999H5.96292ZM12.1102 21C11.5502 21 11.2142 20.664 11.2142 20.104V1.624C11.2142 0.924 11.6062 0.559999 12.2782 0.559999H12.9222C13.4822 0.559999 13.8742 0.755999 14.2102 1.176L24.8502 14.364C25.1302 14.728 25.4662 14.616 25.4662 14.14V1.456C25.4662 0.895998 25.8022 0.559999 26.3622 0.559999H28.1262C28.6862 0.559999 29.0222 0.895998 29.0222 1.456V19.936C29.0222 20.636 28.6302 21 27.9582 21H26.7542C26.2222 21 25.8022 20.804 25.4662 20.384L15.3862 8.148C15.1062 7.784 14.7702 7.896 14.7702 8.372V20.104C14.7702 20.664 14.4342 21 13.8742 21H12.1102ZM32.4035 4.06C31.8435 4.06 31.5075 3.724 31.5075 3.164V1.456C31.5075 0.895998 31.8435 0.559999 32.4035 0.559999H46.1795C46.7395 0.559999 47.0475 0.895998 47.0475 1.456V3.164C47.0475 3.724 46.7395 4.06 46.1795 4.06H41.8395C41.5035 4.06 41.2795 4.284 41.2795 4.62V20.104C41.2795 20.664 40.9435 21 40.3835 21H37.9475C37.3875 21 37.0515 20.664 37.0515 20.104V4.62C37.0515 4.284 36.8555 4.06 36.4915 4.06H32.4035ZM47.458 10.696C47.458 4.704 52.106 0.28 58.406 0.28C64.734 0.28 69.382 4.704 69.382 10.696C69.382 16.828 64.734 21.28 58.406 21.28C52.106 21.28 47.458 16.828 47.458 10.696ZM51.602 10.696C51.602 14.812 54.402 17.724 58.406 17.724C62.438 17.724 65.238 14.812 65.238 10.696C65.238 6.664 62.438 3.836 58.406 3.836C54.402 3.836 51.602 6.664 51.602 10.696ZM77.0088 4.06C76.4488 4.06 76.1128 3.724 76.1128 3.164V1.456C76.1128 0.895998 76.4488 0.559999 77.0088 0.559999H90.7848C91.3448 0.559999 91.6528 0.895998 91.6528 1.456V3.164C91.6528 3.724 91.3448 4.06 90.7848 4.06H86.4448C86.1088 4.06 85.8848 4.284 85.8848 4.62V20.104C85.8848 20.664 85.5488 21 84.9888 21H82.5528C81.9928 21 81.6568 20.664 81.6568 20.104V4.62C81.6568 4.284 81.4608 4.06 81.0968 4.06H77.0088ZM95.0657 21C94.5057 21 94.1697 20.664 94.1697 20.104V1.456C94.1697 0.895998 94.5057 0.559999 95.0657 0.559999H97.3337C97.8937 0.559999 98.2017 0.895998 98.2017 1.456V8.12C98.2017 8.736 98.5657 9.072 99.1817 9.072H107.414C108.03 9.072 108.394 8.736 108.394 8.12V1.456C108.394 0.895998 108.73 0.559999 109.29 0.559999H111.53C112.09 0.559999 112.426 0.895998 112.426 1.456V20.104C112.426 20.664 112.09 21 111.53 21H109.29C108.73 21 108.394 20.664 108.394 20.104V13.692C108.394 13.076 108.03 12.74 107.414 12.74H99.1817C98.5657 12.74 98.2017 13.076 98.2017 13.692V20.104C98.2017 20.664 97.8937 21 97.3337 21H95.0657ZM117.98 21C117.224 21 116.804 20.58 116.804 19.824V1.736C116.804 0.979999 117.224 0.559999 117.98 0.559999H127.78C128.34 0.559999 128.648 0.895998 128.648 1.456V2.968C128.648 3.528 128.34 3.864 127.78 3.864H121.312C121.004 3.864 120.808 4.06 120.808 4.368V8.68C120.808 8.988 121.004 9.184 121.312 9.184H127.22C127.78 9.184 128.116 9.492 128.116 10.08V11.592C128.116 12.152 127.78 12.488 127.22 12.488H121.312C121.004 12.488 120.808 12.684 120.808 12.992V17.192C120.808 17.5 121.004 17.696 121.312 17.696H128.032C128.592 17.696 128.928 18.004 128.928 18.564V20.104C128.928 20.664 128.592 21 128.032 21H117.98ZM139.842 21C139.086 21 138.666 20.58 138.666 19.824V1.736C138.666 0.979999 139.086 0.559999 139.842 0.559999H146.534C151.07 0.559999 153.73 3.08 153.73 6.216C153.73 7.896 152.946 9.212 151.658 10.08C151.238 10.388 151.238 10.752 151.686 11.004C153.198 11.928 154.262 13.412 154.262 15.484C154.262 18.788 151.378 21 146.898 21H139.842ZM142.586 8.68C142.586 8.988 142.782 9.184 143.09 9.184H146.282C148.886 9.156 149.81 7.952 149.81 6.44C149.81 4.872 148.41 3.78 146.394 3.78H143.09C142.782 3.78 142.586 3.976 142.586 4.284V8.68ZM142.586 17.276C142.586 17.584 142.782 17.78 143.09 17.78H146.618C148.998 17.78 150.286 16.576 150.286 15.008C150.286 13.132 149.026 12.208 146.394 12.208H143.09C142.782 12.208 142.586 12.404 142.586 12.712V17.276ZM158.591 21C157.891 21 157.499 20.608 157.499 19.936V1.456C157.499 0.895998 157.835 0.559999 158.395 0.559999H160.663C161.223 0.559999 161.531 0.895998 161.531 1.456V16.912C161.531 17.22 161.727 17.416 162.035 17.416H170.071C170.631 17.416 170.967 17.752 170.967 18.312V20.104C170.967 20.664 170.631 21 170.071 21H158.591ZM172.307 12.376V1.456C172.307 0.895998 172.643 0.559999 173.203 0.559999H175.527C176.087 0.559999 176.423 0.895998 176.423 1.456V12.628C176.423 15.708 178.495 17.612 181.127 17.612C183.675 17.612 185.803 15.736 185.803 12.628V1.456C185.803 0.895998 186.139 0.559999 186.699 0.559999H189.051C189.611 0.559999 189.919 0.895998 189.919 1.456V12.376C189.919 17.612 186.223 21.28 181.127 21.28C176.087 21.28 172.307 17.668 172.307 12.376ZM195.22 21C194.464 21 194.044 20.58 194.044 19.824V1.736C194.044 0.979999 194.464 0.559999 195.22 0.559999H205.02C205.58 0.559999 205.888 0.895998 205.888 1.456V2.968C205.888 3.528 205.58 3.864 205.02 3.864H198.552C198.244 3.864 198.048 4.06 198.048 4.368V8.68C198.048 8.988 198.244 9.184 198.552 9.184H204.46C205.02 9.184 205.356 9.492 205.356 10.08V11.592C205.356 12.152 205.02 12.488 204.46 12.488H198.552C198.244 12.488 198.048 12.684 198.048 12.992V17.192C198.048 17.5 198.244 17.696 198.552 17.696H205.272C205.832 17.696 206.168 18.004 206.168 18.564V20.104C206.168 20.664 205.832 21 205.272 21H195.22Z" fill="#355DC3"/>
<path d="M7.344 48.288C6.128 48.288 5.048 48.072 4.104 47.64C3.16 47.208 2.424 46.592 1.896 45.792C1.368 44.992 1.096 44.04 1.08 42.936H4.128C4.128 43.496 4.256 44 4.512 44.448C4.784 44.88 5.152 45.224 5.616 45.48C6.096 45.736 6.672 45.864 7.344 45.864C7.92 45.864 8.416 45.776 8.832 45.6C9.264 45.408 9.592 45.144 9.816 44.808C10.056 44.456 10.176 44.048 10.176 43.584C10.176 43.056 10.048 42.624 9.792 42.288C9.552 41.936 9.216 41.64 8.784 41.4C8.352 41.16 7.856 40.952 7.296 40.776C6.736 40.584 6.144 40.384 5.52 40.176C4.192 39.728 3.192 39.16 2.52 38.472C1.848 37.768 1.512 36.832 1.512 35.664C1.512 34.688 1.744 33.848 2.208 33.144C2.672 32.44 3.32 31.896 4.152 31.512C5 31.112 5.976 30.912 7.08 30.912C8.2 30.912 9.176 31.112 10.008 31.512C10.856 31.912 11.52 32.472 12 33.192C12.496 33.896 12.752 34.744 12.768 35.736H9.696C9.68 35.32 9.568 34.936 9.36 34.584C9.152 34.216 8.848 33.92 8.448 33.696C8.064 33.456 7.592 33.336 7.032 33.336C6.552 33.32 6.12 33.4 5.736 33.576C5.368 33.736 5.072 33.976 4.848 34.296C4.64 34.6 4.536 34.984 4.536 35.448C4.536 35.896 4.632 36.272 4.824 36.576C5.032 36.864 5.328 37.112 5.712 37.32C6.096 37.512 6.544 37.696 7.056 37.872C7.568 38.048 8.128 38.24 8.736 38.448C9.568 38.72 10.32 39.056 10.992 39.456C11.68 39.84 12.224 40.344 12.624 40.968C13.024 41.592 13.224 42.4 13.224 43.392C13.224 44.256 13 45.064 12.552 45.816C12.104 46.552 11.448 47.152 10.584 47.616C9.72 48.064 8.64 48.288 7.344 48.288ZM21.1843 48.288C20.0003 48.288 18.9363 48.024 17.9923 47.496C17.0643 46.952 16.3363 46.208 15.8083 45.264C15.2963 44.304 15.0403 43.216 15.0403 42C15.0403 40.736 15.2963 39.632 15.8083 38.688C16.3363 37.728 17.0643 36.976 17.9923 36.432C18.9363 35.888 20.0083 35.616 21.2083 35.616C22.7123 35.616 23.9763 36.016 25.0003 36.816C26.0243 37.6 26.6803 38.68 26.9683 40.056H23.9443C23.7843 39.448 23.4483 38.968 22.9363 38.616C22.4403 38.264 21.8483 38.088 21.1603 38.088C20.5683 38.088 20.0243 38.24 19.5283 38.544C19.0483 38.848 18.6643 39.288 18.3763 39.864C18.1043 40.44 17.9683 41.136 17.9683 41.952C17.9683 42.576 18.0483 43.128 18.2083 43.608C18.3683 44.088 18.5923 44.496 18.8803 44.832C19.1843 45.152 19.5283 45.4 19.9123 45.576C20.2963 45.752 20.7123 45.84 21.1603 45.84C21.6243 45.84 22.0403 45.768 22.4083 45.624C22.7923 45.464 23.1123 45.232 23.3683 44.928C23.6403 44.624 23.8323 44.264 23.9443 43.848H26.9683C26.6803 45.192 26.0243 46.272 25.0003 47.088C23.9763 47.888 22.7043 48.288 21.1843 48.288ZM33.2972 48.288C32.3052 48.288 31.4812 48.12 30.8252 47.784C30.1692 47.448 29.6812 47 29.3612 46.44C29.0412 45.88 28.8812 45.272 28.8812 44.616C28.8812 43.848 29.0732 43.184 29.4572 42.624C29.8572 42.064 30.4412 41.632 31.2092 41.328C31.9772 41.008 32.9212 40.848 34.0412 40.848H37.0892C37.0892 40.208 37.0012 39.68 36.8252 39.264C36.6492 38.832 36.3772 38.512 36.0092 38.304C35.6412 38.096 35.1692 37.992 34.5932 37.992C33.9372 37.992 33.3772 38.144 32.9132 38.448C32.4492 38.736 32.1612 39.184 32.0492 39.792H29.2172C29.3132 38.928 29.6012 38.192 30.0812 37.584C30.5612 36.96 31.1932 36.48 31.9772 36.144C32.7772 35.792 33.6492 35.616 34.5932 35.616C35.7292 35.616 36.6972 35.816 37.4972 36.216C38.2972 36.6 38.9052 37.16 39.3212 37.896C39.7532 38.616 39.9692 39.488 39.9692 40.512V48H37.5212L37.2332 46.056C37.0732 46.376 36.8652 46.672 36.6092 46.944C36.3692 47.216 36.0892 47.456 35.7692 47.664C35.4492 47.856 35.0812 48.008 34.6652 48.12C34.2652 48.232 33.8092 48.288 33.2972 48.288ZM33.9452 46.008C34.4092 46.008 34.8172 45.928 35.1692 45.768C35.5372 45.592 35.8492 45.352 36.1052 45.048C36.3772 44.728 36.5852 44.376 36.7292 43.992C36.8732 43.608 36.9692 43.2 37.0172 42.768V42.72H34.3532C33.7932 42.72 33.3292 42.792 32.9612 42.936C32.5932 43.08 32.3292 43.28 32.1692 43.536C32.0092 43.776 31.9292 44.064 31.9292 44.4C31.9292 44.736 32.0092 45.024 32.1692 45.264C32.3292 45.504 32.5612 45.688 32.8652 45.816C33.1692 45.944 33.5292 46.008 33.9452 46.008ZM45.5034 48L41.0394 35.904H44.0634L47.2554 45.264L50.4474 35.904H53.4234L48.9594 48H45.5034ZM60.0786 48.288C58.8786 48.288 57.8226 48.032 56.9106 47.52C55.9986 46.992 55.2866 46.256 54.7746 45.312C54.2626 44.368 54.0066 43.28 54.0066 42.048C54.0066 40.768 54.2546 39.648 54.7506 38.688C55.2626 37.728 55.9746 36.976 56.8866 36.432C57.8146 35.888 58.8866 35.616 60.1026 35.616C61.2866 35.616 62.3186 35.88 63.1986 36.408C64.0786 36.936 64.7586 37.648 65.2386 38.544C65.7186 39.424 65.9586 40.416 65.9586 41.52C65.9586 41.68 65.9586 41.856 65.9586 42.048C65.9586 42.24 65.9426 42.44 65.9106 42.648H56.0706V40.8H63.0546C63.0226 39.92 62.7266 39.232 62.1666 38.736C61.6066 38.224 60.9106 37.968 60.0786 37.968C59.4866 37.968 58.9426 38.104 58.4466 38.376C57.9506 38.648 57.5586 39.056 57.2706 39.6C56.9826 40.128 56.8386 40.8 56.8386 41.616V42.312C56.8386 43.064 56.9746 43.712 57.2466 44.256C57.5346 44.8 57.9186 45.216 58.3986 45.504C58.8946 45.776 59.4466 45.912 60.0546 45.912C60.7266 45.912 61.2786 45.768 61.7106 45.48C62.1586 45.192 62.4866 44.808 62.6946 44.328H65.6226C65.3986 45.08 65.0306 45.76 64.5186 46.368C64.0066 46.96 63.3746 47.432 62.6226 47.784C61.8706 48.12 61.0226 48.288 60.0786 48.288ZM68.1377 48V35.904H70.6817L70.8977 37.92C71.2657 37.216 71.7937 36.656 72.4817 36.24C73.1697 35.824 73.9857 35.616 74.9297 35.616C75.9057 35.616 76.7377 35.824 77.4257 36.24C78.1137 36.64 78.6417 37.232 79.0097 38.016C79.3937 38.8 79.5857 39.776 79.5857 40.944V48H76.7057V41.208C76.7057 40.2 76.4817 39.424 76.0337 38.88C75.5857 38.336 74.9217 38.064 74.0417 38.064C73.4657 38.064 72.9457 38.2 72.4817 38.472C72.0337 38.744 71.6737 39.144 71.4017 39.672C71.1457 40.184 71.0177 40.808 71.0177 41.544V48H68.1377ZM87.2301 53.568C86.0941 53.568 85.0941 53.424 84.2301 53.136C83.3821 52.864 82.7181 52.44 82.2381 51.864C81.7741 51.304 81.5421 50.6 81.5421 49.752C81.5421 49.256 81.6621 48.768 81.9021 48.288C82.1581 47.824 82.5341 47.392 83.0301 46.992C83.5421 46.576 84.1901 46.216 84.9741 45.912L86.2461 47.304C85.4781 47.576 84.9421 47.904 84.6381 48.288C84.3341 48.672 84.1821 49.064 84.1821 49.464C84.1821 49.88 84.3101 50.224 84.5661 50.496C84.8381 50.784 85.1981 51 85.6461 51.144C86.1101 51.288 86.6301 51.36 87.2061 51.36C87.7661 51.36 88.2541 51.28 88.6701 51.12C89.0861 50.976 89.4061 50.768 89.6301 50.496C89.8701 50.224 89.9901 49.896 89.9901 49.512C89.9901 49.032 89.8221 48.64 89.4861 48.336C89.1501 48.048 88.4861 47.872 87.4941 47.808C86.6461 47.744 85.9021 47.656 85.2621 47.544C84.6221 47.416 84.0701 47.272 83.6061 47.112C83.1581 46.952 82.7741 46.776 82.4541 46.584C82.1341 46.376 81.8701 46.168 81.6621 45.96V45.408L84.1821 42.768L86.3181 43.464L83.4861 46.224L84.2301 44.832C84.3901 44.944 84.5501 45.048 84.7101 45.144C84.8861 45.24 85.1021 45.328 85.3581 45.408C85.6301 45.472 85.9821 45.536 86.4141 45.6C86.8461 45.664 87.4061 45.728 88.0941 45.792C89.1661 45.872 90.0381 46.064 90.7101 46.368C91.3821 46.672 91.8781 47.08 92.1981 47.592C92.5181 48.104 92.6781 48.72 92.6781 49.44C92.6781 50.144 92.4781 50.808 92.0781 51.432C91.6941 52.056 91.1021 52.568 90.3021 52.968C89.5021 53.368 88.4781 53.568 87.2301 53.568ZM87.2301 44.376C86.2221 44.376 85.3501 44.184 84.6141 43.8C83.8941 43.4 83.3421 42.872 82.9581 42.216C82.5741 41.544 82.3821 40.808 82.3821 40.008C82.3821 39.192 82.5741 38.456 82.9581 37.8C83.3421 37.144 83.8941 36.616 84.6141 36.216C85.3501 35.816 86.2221 35.616 87.2301 35.616C88.2381 35.616 89.1021 35.816 89.8221 36.216C90.5421 36.616 91.0941 37.144 91.4781 37.8C91.8621 38.456 92.0541 39.192 92.0541 40.008C92.0541 40.808 91.8621 41.544 91.4781 42.216C91.0941 42.872 90.5421 43.4 89.8221 43.8C89.1021 44.184 88.2381 44.376 87.2301 44.376ZM87.2301 42.144C87.9181 42.144 88.4701 41.96 88.8861 41.592C89.3021 41.224 89.5101 40.696 89.5101 40.008C89.5101 39.32 89.3021 38.8 88.8861 38.448C88.4701 38.08 87.9181 37.896 87.2301 37.896C86.5421 37.896 85.9821 38.08 85.5501 38.448C85.1181 38.8 84.9021 39.32 84.9021 40.008C84.9021 40.696 85.1181 41.224 85.5501 41.592C85.9821 41.96 86.5421 42.144 87.2301 42.144ZM89.2221 38.016L88.6701 35.904H93.6381V37.728L89.2221 38.016ZM100.896 48.288C99.6964 48.288 98.6404 48.032 97.7284 47.52C96.8164 46.992 96.1044 46.256 95.5924 45.312C95.0804 44.368 94.8244 43.28 94.8244 42.048C94.8244 40.768 95.0724 39.648 95.5684 38.688C96.0804 37.728 96.7924 36.976 97.7044 36.432C98.6324 35.888 99.7044 35.616 100.92 35.616C102.104 35.616 103.136 35.88 104.016 36.408C104.896 36.936 105.576 37.648 106.056 38.544C106.536 39.424 106.776 40.416 106.776 41.52C106.776 41.68 106.776 41.856 106.776 42.048C106.776 42.24 106.76 42.44 106.728 42.648H96.8884V40.8H103.872C103.84 39.92 103.544 39.232 102.984 38.736C102.424 38.224 101.728 37.968 100.896 37.968C100.304 37.968 99.7604 38.104 99.2644 38.376C98.7684 38.648 98.3764 39.056 98.0884 39.6C97.8004 40.128 97.6564 40.8 97.6564 41.616V42.312C97.6564 43.064 97.7924 43.712 98.0644 44.256C98.3524 44.8 98.7364 45.216 99.2164 45.504C99.7124 45.776 100.264 45.912 100.872 45.912C101.544 45.912 102.096 45.768 102.528 45.48C102.976 45.192 103.304 44.808 103.512 44.328H106.44C106.216 45.08 105.848 45.76 105.336 46.368C104.824 46.96 104.192 47.432 103.44 47.784C102.688 48.12 101.84 48.288 100.896 48.288ZM108.956 48V35.904H111.524L111.788 38.16C112.076 37.632 112.436 37.184 112.868 36.816C113.3 36.432 113.804 36.136 114.38 35.928C114.972 35.72 115.62 35.616 116.324 35.616V38.664H115.316C114.836 38.664 114.38 38.728 113.948 38.856C113.516 38.968 113.14 39.16 112.82 39.432C112.516 39.688 112.276 40.048 112.1 40.512C111.924 40.96 111.836 41.528 111.836 42.216V48H108.956ZM134.098 48V31.2H136.978V48H134.098ZM123.49 48V31.2H126.37V48H123.49ZM125.938 40.608V38.256H134.65V40.608H125.938ZM144.3 48.288C143.324 48.288 142.484 48.096 141.78 47.712C141.092 47.312 140.564 46.72 140.196 45.936C139.828 45.136 139.644 44.152 139.644 42.984V35.904H142.524V42.696C142.524 43.736 142.74 44.528 143.172 45.072C143.62 45.6 144.292 45.864 145.188 45.864C145.764 45.864 146.276 45.728 146.724 45.456C147.188 45.184 147.548 44.792 147.804 44.28C148.076 43.752 148.212 43.112 148.212 42.36V35.904H151.092V48H148.548L148.332 45.984C147.964 46.688 147.428 47.248 146.724 47.664C146.036 48.08 145.228 48.288 144.3 48.288ZM153.817 48V35.904H156.361L156.577 37.92C156.945 37.216 157.473 36.656 158.161 36.24C158.849 35.824 159.665 35.616 160.609 35.616C161.585 35.616 162.417 35.824 163.105 36.24C163.793 36.64 164.321 37.232 164.689 38.016C165.073 38.8 165.265 39.776 165.265 40.944V48H162.385V41.208C162.385 40.2 162.161 39.424 161.713 38.88C161.265 38.336 160.601 38.064 159.721 38.064C159.145 38.064 158.625 38.2 158.161 38.472C157.713 38.744 157.353 39.144 157.081 39.672C156.825 40.184 156.697 40.808 156.697 41.544V48H153.817ZM173.077 48C172.261 48 171.549 47.872 170.941 47.616C170.349 47.36 169.885 46.936 169.549 46.344C169.213 45.752 169.045 44.952 169.045 43.944V38.328H166.981V35.904H169.045L169.381 32.712H171.925V35.904H175.213V38.328H171.925V43.944C171.925 44.552 172.053 44.976 172.309 45.216C172.581 45.44 173.029 45.552 173.653 45.552H175.141V48H173.077Z" fill="#89AFEF"/>
</svg>
