<svg width="40" height="40" viewBox="0 0 40 40" fill="none" xmlns="http://www.w3.org/2000/svg">
<rect width="40" height="40" rx="20" fill="#E16161"/>
<path d="M28.725 13.275H24.035V12.385C24.0313 11.7548 23.7799 11.1514 23.335 10.705C23.1134 10.4826 22.85 10.3063 22.5599 10.1862C22.2699 10.066 21.9589 10.0045 21.645 10.005H18.385C18.0711 10.0045 17.7601 10.066 17.4701 10.1862C17.18 10.3063 16.9166 10.4826 16.695 10.705C16.2538 11.153 16.0061 11.7562 16.005 12.385V13.275H11.315C11.1161 13.275 10.9253 13.354 10.7847 13.4947C10.644 13.6353 10.565 13.8261 10.565 14.025C10.565 14.2239 10.644 14.4147 10.7847 14.5553C10.9253 14.696 11.1161 14.775 11.315 14.775H12.735V26.535C12.7309 26.9908 12.8172 27.4428 12.9888 27.8651C13.1605 28.2873 13.4141 28.6714 13.735 28.995C14.3893 29.6361 15.2689 29.9951 16.185 29.995H23.805C24.7211 29.9951 25.6007 29.6361 26.255 28.995C26.5759 28.6714 26.8295 28.2873 27.0012 27.8651C27.1728 27.4428 27.2591 26.9908 27.255 26.535V14.775H28.685C28.8839 14.775 29.0747 14.696 29.2153 14.5553C29.356 14.4147 29.435 14.2239 29.435 14.025C29.435 13.8261 29.356 13.6353 29.2153 13.4947C29.0747 13.354 28.8839 13.275 28.685 13.275H28.725ZM17.525 12.385C17.525 12.2696 17.5481 12.1553 17.5927 12.0489C17.6373 11.9424 17.7027 11.8459 17.785 11.765C17.9503 11.6015 18.1725 11.5083 18.405 11.505H21.665C21.782 11.5043 21.898 11.5269 22.0062 11.5715C22.1144 11.6162 22.2126 11.682 22.295 11.765C22.4585 11.9303 22.5517 12.1525 22.555 12.385V13.275H17.555L17.525 12.385ZM18.855 24.995C18.855 25.2602 18.7496 25.5146 18.5621 25.7021C18.3746 25.8897 18.1202 25.995 17.855 25.995C17.5898 25.995 17.3354 25.8897 17.1479 25.7021C16.9604 25.5146 16.855 25.2602 16.855 24.995V19.565C16.855 19.2998 16.9604 19.0454 17.1479 18.8579C17.3354 18.6704 17.5898 18.565 17.855 18.565C18.1202 18.565 18.3746 18.6704 18.5621 18.8579C18.7496 19.0454 18.855 19.2998 18.855 19.565V24.995ZM23.215 24.995C23.215 25.2602 23.1096 25.5146 22.9221 25.7021C22.7346 25.8897 22.4802 25.995 22.215 25.995C21.9498 25.995 21.6954 25.8897 21.5079 25.7021C21.3204 25.5146 21.215 25.2602 21.215 24.995V19.565C21.215 19.2998 21.3204 19.0454 21.5079 18.8579C21.6954 18.6704 21.9498 18.565 22.215 18.565C22.4802 18.565 22.7346 18.6704 22.9221 18.8579C23.1096 19.0454 23.215 19.2998 23.215 19.565V24.995Z" fill="#F8FAFC"/>
</svg>
