<svg width="12" height="12" viewBox="0 0 12 12" fill="none" xmlns="http://www.w3.org/2000/svg">
<path fill-rule="evenodd" clip-rule="evenodd" d="M0.286683 0.305288C0.474211 0.117817 0.728519 0.0125018 0.993683 0.0125018C1.25885 0.0125018 1.51315 0.117817 1.70068 0.305288L5.99368 4.59829L10.2867 0.305288C10.3789 0.209778 10.4893 0.133596 10.6113 0.0811869C10.7333 0.0287779 10.8645 0.00119157 10.9973 3.77571e-05C11.1301 -0.00111606 11.2617 0.0241854 11.3846 0.0744663C11.5075 0.124747 11.6192 0.199 11.7131 0.292893C11.807 0.386786 11.8812 0.498438 11.9315 0.621334C11.9818 0.744231 12.0071 0.87591 12.0059 1.00869C12.0048 1.14147 11.9772 1.27269 11.9248 1.39469C11.8724 1.5167 11.7962 1.62704 11.7007 1.71929L7.40768 6.01229L11.7007 10.3053C11.8828 10.4939 11.9836 10.7465 11.9814 11.0087C11.9791 11.2709 11.8739 11.5217 11.6885 11.7071C11.5031 11.8925 11.2523 11.9977 10.9901 12C10.7279 12.0022 10.4753 11.9014 10.2867 11.7193L5.99368 7.42629L1.70068 11.7193C1.51208 11.9014 1.25948 12.0022 0.997282 12C0.735085 11.9977 0.484272 11.8925 0.298864 11.7071C0.113456 11.5217 0.00828704 11.2709 0.00600863 11.0087C0.00373021 10.7465 0.104525 10.4939 0.286683 10.3053L4.57968 6.01229L0.286683 1.71929C0.099212 1.53176 -0.00610352 1.27745 -0.00610352 1.01229C-0.00610352 0.747124 0.099212 0.492816 0.286683 0.305288Z" fill="#333D37"/>
</svg>
