<svg width="14" height="24" viewBox="0 0 14 24" fill="none" xmlns="http://www.w3.org/2000/svg">
<path d="M4.36119 19.4619H9.42915M9.50093 18.9145C9.6099 18.086 10.1374 17.3889 10.767 16.8389C11.6721 16.0504 12.3148 15.0044 12.6093 13.8407C12.9038 12.6771 12.836 11.4512 12.415 10.3271C11.994 9.20305 11.2398 8.23428 10.2534 7.55037C9.26688 6.86646 8.09511 6.5 6.89474 6.5C5.69436 6.5 4.5226 6.86646 3.53612 7.55037C2.54965 8.23428 1.79548 9.20305 1.37447 10.3271C0.953453 11.4512 0.88566 12.6771 1.18015 13.8407C1.47464 15.0044 2.11738 16.0504 3.02242 16.8389C3.65289 17.3889 4.18131 18.086 4.28941 18.9145L4.36206 19.4619L4.56357 20.9961C4.61833 21.4121 4.82249 21.7941 5.13801 22.0708C5.45353 22.3475 5.85888 22.5 6.27854 22.5H7.5118C7.93146 22.5 8.33681 22.3475 8.65233 22.0708C8.96785 21.7941 9.17201 21.4121 9.22677 20.9961L9.42828 19.4619L9.50093 18.9145Z" stroke="#3E65C8" stroke-width="1.5" stroke-linecap="round" stroke-linejoin="round"/>
<path d="M7 3.5V1.5" stroke="#3E65C8" stroke-width="1.5" stroke-linecap="round"/>
<path d="M2 5.23205L1 3.5" stroke="#3E65C8" stroke-width="1.5" stroke-linecap="round"/>
<path d="M12 5.23205L13 3.5" stroke="#3E65C8" stroke-width="1.5" stroke-linecap="round"/>
</svg>
