<svg width="14" height="19" viewBox="0 0 14 19" fill="none" xmlns="http://www.w3.org/2000/svg">
<path d="M4.36119 14.4619H9.42915M9.50093 13.9145C9.6099 13.086 10.1374 12.3889 10.767 11.8389C11.6721 11.0504 12.3148 10.0044 12.6093 8.84072C12.9038 7.67706 12.836 6.45123 12.415 5.32714C11.994 4.20305 11.2398 3.23428 10.2534 2.55037C9.26688 1.86646 8.09511 1.5 6.89474 1.5C5.69436 1.5 4.5226 1.86646 3.53612 2.55037C2.54965 3.23428 1.79548 4.20305 1.37447 5.32714C0.953453 6.45123 0.88566 7.67706 1.18015 8.84072C1.47464 10.0044 2.11738 11.0504 3.02242 11.8389C3.65289 12.3889 4.18131 13.086 4.28941 13.9145L4.36206 14.4619L4.56357 15.9961C4.61833 16.4121 4.82249 16.7941 5.13801 17.0708C5.45353 17.3475 5.85888 17.5 6.27854 17.5H7.5118C7.93146 17.5 8.33681 17.3475 8.65233 17.0708C8.96785 16.7941 9.17201 16.4121 9.22677 15.9961L9.42828 14.4619L9.50093 13.9145Z" stroke="#89AFEF" stroke-width="1.5" stroke-linecap="round" stroke-linejoin="round"/>
</svg>
