<svg width="36" height="36" viewBox="0 0 36 36" fill="none" xmlns="http://www.w3.org/2000/svg">
<rect x="0.5" y="0.5" width="35" height="35" rx="17.5" fill="#FFFEFD"/>
<rect x="0.5" y="0.5" width="35" height="35" rx="17.5" stroke="#D5DAE7"/>
<path d="M26.0958 15.6348C26.3997 15.3147 26.9388 15.5218 26.9503 15.963L27.2177 26.2682C27.2248 26.5417 27.0088 26.7691 26.7353 26.7762L16.4303 27.0438C15.9891 27.0552 15.7543 26.5275 16.0582 26.2075L26.0958 15.6348Z" fill="#3E65C8"/>
<path d="M9.90428 20.3652C9.60041 20.6852 9.06125 20.4781 9.0498 20.0369L8.78238 9.73176C8.77528 9.45826 8.99125 9.23079 9.26474 9.22369L19.5698 8.95616C20.011 8.94471 20.2458 9.47239 19.9419 9.79246L9.90428 20.3652Z" fill="#3E65C8"/>
</svg>
