<?xml version="1.0" encoding="UTF-8"?><svg id="Layer_1" xmlns="http://www.w3.org/2000/svg" viewBox="0 0 300 360"><defs><style>.cls-1{fill:none;stroke:#231f20;stroke-miterlimit:10;stroke-width:.25px;}</style></defs><path class="cls-1" d="M81.93,34.21c2.29,1.29,2.77,3.15,3.63,5.5,1.32,3.61,2,7.3,3.57,10.87.69,1.58,1.74,3.1,2.41,4.59,4.08,9.03,7.5,18.26,11.88,27.2,1.73,3.53,3.92,6.88,5.39,10.54.16.4.03.87.21,1.28.46,1.06,2.89,2.92,3.54,4.32,1.29,2.75,1.72,2.5,3.24,4.62.46.64.68,1.54,1.21,2.18.57.69,1.57,1.25,2.18,2.06,1.67,2.22,3.53,6.89,5.33,8.69.33.33,1.01.33,1.48.64,1.5.97,2.72,3.07,4.03,4.04.67.5,1.62.71,2.22,1.18,5.9,4.53,10.52,5.41,17.95,5.43,2.05,0,2.87-1.1,4.05-1.28.78-.12,1.3.21,1.9.2,2.01-.03,4.04-1.69,5.69-2.8,1.15-.77,2.16-1.61,3.35-2.39.58-.37,1.69-.72,2.1-1.09.79-.74,2.03-2.75,2.87-3.71,4.12-4.7,8.87-9.49,12.52-14.45,4.92-6.7,8.38-14.4,11.82-21.94.67-1.46,1.86-2.78,2.56-4.23.92-1.89,1.42-4.32,2.32-6.17.37-.76,1.16-1.44,1.4-1.99.31-.72.19-1.6.41-2.35,1.07-3.56,2.91-6.96,4.21-10.45,1.97-5.27,3.54-10.8,5.4-16.05.76-2.12,1.77-4.5,3.83-5.62h1.7s27.58,8.07,36.82,12.54,35.7,35.9,35.7,35.9c6.71-1.53-5.72,45.22.37,49.1.11,9.28,8.95,6.96,10.77,13.33-2.59,2.57-4.38,6.77-1.33,9.93-.22,5.04-.91,12.2-9.62,14.91.15,7.39-5.56,2.74-7.14,8.35-3.12,11.81-7.13,20.66-9.01,27.52-8.22.07,13.26,26.14-1.64,22.15-.95,1.43-.48,5.6-3.2,6.15-6.28-.58-5.91,8.27-13.7,8.26-2.37-4.66-4.14-5.43-5.27-5.38-3.95.18-3.48,10.62-12.35,22.69-2.22,3.02-3.83,4.52-5,7.98-1.76,5.23-.92,10.27.08,13.74,0,0,1.84,1.92,1.53,6.54-1.63,5.15-8.41-3.59-12.4-2.86-.66.2-.45,4.61-2.52,5.56-10.94,2.03-18.72,5.67-23.91,8.74-9.38,5.55-12.46,10.49-20.46,10.8-4,.15-7.67-.91-12.27,1.33-3.13,1.53-5.17,3.85-6.41,5.57-.66,9.16-31.69-15.45-33.4-17.35-.88-1.58-1.71-3.62-3.54-2.06-2.54.79-5.17.27-6.67-1.35-.15-.16-2.07-2.28-1.53-4.3.07-.27.13-.33.1-.44-.19-.76-3.7-.96-17.34,1.14-3.16.25-13.29-15.11-16.04-15.05-3.2-6.28-17.96-29.02-21.31-26.25-1.92,1.09-12.45,2.07-17.63-2.63-7.32-6.63-6.44-20.52-6.98-26.29-.57-6.06-2.29-14.71-7.66-25.05-2.96-4.39-1.11-26.86-5.95-23.99-11.61,6.45-9.89-34.54-13.58-31.21-1.74,4.66-4.07-1.2-3.84-3.52,1.03-9.99,8.33-7.92,9.66-16.8-4.77-7.78-7.29-37.12-2.88-38.09,0,0,15.84-26.45,36.23-36.43s38.93-11.99,38.93-11.99Z"/></svg>