<?xml version="1.0" encoding="UTF-8"?><svg id="Layer_1" xmlns="http://www.w3.org/2000/svg" viewBox="0 0 300 360"><defs><style>.cls-1{fill:none;stroke:#231f20;stroke-miterlimit:10;stroke-width:.25px;}</style></defs><path class="cls-1" d="M38.28,72.72c1.99.62,4.17.4,6.22.66,11.35,1.45,20.33,5.85,26.35,15.79,1.85,3.06,3.41,6.77,3.85,10.34.26,2.07.72,5.18-1.4,6.42-.82.48-4.13.88-4.28,1.12-.28.43.38,3.09.61,3.67.29.74,1.18,1.21,1.72,2.09,4.1,6.57,4.26,10.97,6.47,17.88.22.68.69,1.12.85,1.69.94,3.22,1.54,7.79,2.65,10.69,1.05,2.76,3.29,5.64,4.43,8.49.35.87.39,2.07.84,2.76.31.48,1.41,1.15,2.05,1.97,1.41,1.8,3.26,4.59,4.45,6.57.27.46.54,1.52.73,1.71.27.28,1.57.97,2.07,1.42,2.09,1.91,3.84,4.2,5.92,6.15,5.15,4.82,11.25,9.52,17.8,12.28,1.81.76,9.23,2.4,10.05,3.3.26.28.14.68.59.9.7.35,6.84,1.5,7.91,1.61,3.19.32,6.47-.13,9.69.26.82.1,1.5.53,2.13.62,5.95.81,17.08-1.06,23.03-2.61,2.85-.74,5.85-2.59,8.68-3.39.82-.23,1.91-.2,2.56-.41.3-.09,1.79-1.95,2.27-2.39,2.67-2.47,5.65-4.65,8.16-7.3,4.07-4.3,7.9-8.74,11.85-13.14.35-.39.99-.68,1.18-.94.28-.38.58-1.76.94-2.45.57-1.1,4.11-7.41,4.66-7.84.35-.27.83-.24,1.11-.48.52-.43.9-2.53,1.23-3.32,1.39-3.37,2-4.35,2.74-8.06.42-2.12,2.37-4.96,2.78-6.97.24-1.17.09-2.69.36-3.88.53-2.37,2.17-5.13,2.65-7.51.14-.72-.02-1.4.15-2.18s1.78-3.69,2.27-4.51c.44-.74,2.83-3.81,2.89-4.12.34-1.73-3.43-1.06-4.71-1.78-1.82-1.03-1.19-5.81-.92-7.64,1.7-11.78,12.56-21.79,23.55-25.16,6.63-2.03,15.37-2.2,22.18-1,2.4.42,3.96,1.1,6.41,1.43,2.25.3,9.86,3.18,10.95,5.14.34.61.68,1.87.58,2.57-.22,1.64-2.16,1.97-2.33,3.82-.21,2.32.61,5.41.86,7.85.22,2.18-.08,5.59.76,7.49,1.08,2.44,4.57,4.4,4.54,7.11,0,.67-.43,2.93-.65,3.6-.78,2.44,4.07,5.68,6.35,7.65.38.33.52.75.85,1.05,1.01.92,1.93.62,1.93,2.53s-.27,5.55.19,6.25v1.91l-.66,7.28c-1.67,3.92-1.17,9.31-2.41,13.05-.23.7-.8,1.11-.92,1.62-.85,3.8-1.14,7.95-2.47,11.71-2.16,6.08-3.45,12.87-5.51,19.06-1.18,3.54-3.98,8.89-5.87,12.34-.67,1.23-2.65,4.76-3.47,5.64-.43.47-.93.53-1.25.87-.49.52-.66,1.75-1.3,2.51-.39.46-1.01.72-1.24,1.09-1.28,1.99-2.27,6.4-3.74,8.54-.31.45-1.23.91-1.67,1.51-2.67,3.67-3.4,4.72-7.1,7.51-.74.56-9.07,10.76-9.63,11.34-.64.67-1.45,1.19-2.02,1.79-1.45,1.5-3.73,4.44-5.29,5.51-.72.5-1.55.34-2.01.74-.41.35-.55,1.41-1.17,2.01-.58.57-1.44.68-1.91,1.05-2.87,2.29-5.7,4.72-8.67,7-1.32,1.02-4.07,3.85-5.4,4.34-.41.15-.9.02-1.28.2-.29.14-.95,1.35-1.62,1.77s-1.92.5-2.14.72c-.18.18-.19.71-.38,1-.82,1.24-6.63,3.98-8.21,4.92-2.01,1.2-4.67,3.46-6.7,4.31-.72.3-1.46.24-2,.54-.5.28-.63.93-1.39,1.37-1.57.9-2.12.08-3.04.3-.25.06-.39.8-.63,1.01-.56.48-6.65,1.94-7.94,2.33-3.5,1.08-6.5,1.96-10.06,2.86-.55.14-1.06.64-1.58.75-.43.09-1.62-.03-1.73.07-.22.19-.03,1.7-.59,1.85l-14.37,1.32c-2.47,0-5.55-.06-8.01.23-2.49.28-1.93,1.27-3.32,2.19-2.15,1.44-2.39-.18-3.82-.81-1.41-.62-3.22-.23-4.74-.34-4.06-.31-8.23-.13-12.13-.79-2-.34-4.72-.3-6.55-.86-.68-.21-.58-.59-1.15-.76-.93-.28-1.88-.03-2.81-.16-8.11-1.13-16.15-5.28-23.28-8.91-.64-.33-1.47-.24-2.07-.9-.28-.31-.28-.87-.68-1.04-.61-.25-1.03.41-1.9.25-2.66-.51-9.96-5.27-12.55-6.94-.97-.63-2.1-1.75-2.87-2.21-.6-.36-1.48-.38-2.09-.87-.46-.37-.64-1.05-1.2-1.34-.78-.41-1.7-.22-2.66-.73-2.51-1.37-4.63-4.16-6.74-5.97-1.69-1.46-4.55-3.15-5.95-4.64-.42-.45-.57-1.07-.94-1.39-.44-.39-1.15-.44-1.7-.84-1.07-.76-1.46-2.66-1.8-2.86-.3-.18-.86-.11-1.23-.25-.87-.33-3.9-3.89-4.69-4.84-.6-.72-.81-1.49-1.27-2.11-.76-1.02-7.66-8.36-8.47-8.9-.6-.4-.95-1.49-1.28-1.68-.4-.23-.95-.03-1.47-.44-.37-.3-1.42-2.1-1.79-2.65-3.02-4.5-6.48-10.83-8.84-15.72-.66-1.36-.97-3.36-2.39-4.18-.48-.28-.92-.12-1.41-.5-.42-.33-2.78-4.96-2.9-5.57-.15-.72.07-1.46-.14-2.19-.41-1.4-3.15-4.64-3.97-6.2-.76-1.45-1.67-4.03-2.19-5.64-1.11-3.39-2.93-6.6-4.02-10.17-.89-2.93-1.47-6.99-2.53-9.75-.21-.54-.78-.84-.91-1.42-.19-.83.2-1.45.12-2.03-.04-.35-.43-.87-.53-1.38-1.01-5.04-1.57-10.01-1.55-15.18-.13-.7-1.16-1.08-1.38-1.79-.47-1.51.94-3.45-.94-4.46,0-.14,0-.28,0-.42.03-.46.37-1.41.42-2.01.1-1.08.8-14.73,1.11-16.05.54-2.33,9.7-14.04,10.24-16.65.46-2.24.06-5.9.31-8.37.19-1.9,1.92-6.55,1.65-7.79-.42-1.94-3.53-.8-3.14-4.29.12-1.11,1.47-2.55,2.4-3.11,6.75-4.05,16.97-5.77,24.72-6.1h.64Z"/></svg>