<svg width="44" height="44" viewBox="0 0 44 44" fill="none" xmlns="http://www.w3.org/2000/svg">
<rect x="0.803711" y="0.658203" width="42.5105" height="42.5105" rx="21.2552" fill="#D7E3FF"/>
<g clip-path="url(#clip0_623_1428)">
<path fill-rule="evenodd" clip-rule="evenodd" d="M20.5128 12.0701C20.5128 11.2494 19.8474 10.584 19.0267 10.584C18.2059 10.584 17.5405 11.2494 17.5405 12.0701V17.1478C17.5405 17.4214 17.3187 17.6432 17.0451 17.6432L10.9804 17.6432C10.1596 17.6432 9.49427 18.3086 9.49427 19.1294C9.49427 19.9502 10.1596 20.6155 10.9804 20.6155L17.0451 20.6155C17.3187 20.6155 17.5405 20.8373 17.5405 21.1109V23.5878C17.5405 23.8614 17.3187 24.0832 17.0451 24.0832H10.7327C9.91196 24.0832 9.24658 24.7486 9.24658 25.5694C9.24658 26.3902 9.91196 27.0555 10.7327 27.0555H17.0451C17.3187 27.0555 17.5405 27.2773 17.5405 27.5509V33.2479C17.5405 34.0686 18.2059 34.734 19.0267 34.734C19.8474 34.734 20.5128 34.0686 20.5128 33.2479V27.5509C20.5128 27.2773 20.7346 27.0555 21.0082 27.0555H23.7328C24.0064 27.0555 24.2281 27.2773 24.2281 27.5509V33.2479C24.2281 34.0686 24.8935 34.734 25.7143 34.734C26.5351 34.734 27.2005 34.0686 27.2005 33.2479V27.5509C27.2005 27.2773 27.4222 27.0555 27.6958 27.0555H33.5205C34.3412 27.0555 35.0066 26.3902 35.0066 25.5694C35.0066 24.7486 34.3412 24.0832 33.5205 24.0832H27.6958C27.4222 24.0832 27.2005 23.8614 27.2005 23.5878V21.1109C27.2005 20.8373 27.4222 20.6155 27.6958 20.6155L33.5205 20.6155C34.3412 20.6155 35.0066 19.9502 35.0066 19.1294C35.0066 18.3086 34.3412 17.6432 33.5205 17.6432L27.6958 17.6432C27.4222 17.6432 27.2005 17.4214 27.2005 17.1478V12.0701C27.2005 11.2494 26.5351 10.584 25.7143 10.584C24.8935 10.584 24.2281 11.2494 24.2281 12.0701V17.1478C24.2281 17.4214 24.0064 17.6432 23.7328 17.6432L21.0082 17.6432C20.7346 17.6432 20.5128 17.4214 20.5128 17.1478V12.0701ZM23.7328 24.0832C24.0064 24.0832 24.2281 23.8614 24.2281 23.5878V21.1109C24.2281 20.8373 24.0064 20.6155 23.7328 20.6155H21.0082C20.7346 20.6155 20.5128 20.8373 20.5128 21.1109V23.5878C20.5128 23.8614 20.7346 24.0832 21.0082 24.0832H23.7328Z" fill="#586FEB"/>
</g>
<defs>
<clipPath id="clip0_623_1428">
<rect width="26.7508" height="26.7508" fill="white" transform="translate(8.75073 8.72656)"/>
</clipPath>
</defs>
</svg>
