<svg width="44" height="44" viewBox="0 0 44 44" fill="none" xmlns="http://www.w3.org/2000/svg">
<rect x="0.825439" y="0.658203" width="42.5105" height="42.5105" rx="21.2552" fill="#586FEB"/>
<g clip-path="url(#clip0_623_1358)">
<path fill-rule="evenodd" clip-rule="evenodd" d="M20.5336 12.0701C20.5336 11.2494 19.8682 10.584 19.0474 10.584C18.2266 10.584 17.5613 11.2494 17.5613 12.0701V17.1478C17.5613 17.4214 17.3395 17.6432 17.0659 17.6432L11.0012 17.6432C10.1804 17.6432 9.51502 18.3086 9.51502 19.1294C9.51502 19.9502 10.1804 20.6155 11.0012 20.6155L17.0659 20.6155C17.3395 20.6155 17.5613 20.8373 17.5613 21.1109V23.5878C17.5613 23.8614 17.3395 24.0832 17.0659 24.0832H10.7535C9.93271 24.0832 9.26733 24.7486 9.26733 25.5694C9.26733 26.3902 9.93271 27.0555 10.7535 27.0555H17.0659C17.3395 27.0555 17.5613 27.2773 17.5613 27.5509V33.2479C17.5613 34.0686 18.2266 34.734 19.0474 34.734C19.8682 34.734 20.5336 34.0686 20.5336 33.2479V27.5509C20.5336 27.2773 20.7554 27.0555 21.0289 27.0555H23.7535C24.0271 27.0555 24.2489 27.2773 24.2489 27.5509V33.2479C24.2489 34.0686 24.9143 34.734 25.7351 34.734C26.5558 34.734 27.2212 34.0686 27.2212 33.2479V27.5509C27.2212 27.2773 27.443 27.0555 27.7166 27.0555H33.5412C34.362 27.0555 35.0274 26.3902 35.0274 25.5694C35.0274 24.7486 34.362 24.0832 33.5412 24.0832H27.7166C27.443 24.0832 27.2212 23.8614 27.2212 23.5878V21.1109C27.2212 20.8373 27.443 20.6155 27.7166 20.6155L33.5412 20.6155C34.362 20.6155 35.0274 19.9502 35.0274 19.1294C35.0274 18.3086 34.362 17.6432 33.5412 17.6432L27.7166 17.6432C27.443 17.6432 27.2212 17.4214 27.2212 17.1478V12.0701C27.2212 11.2494 26.5558 10.584 25.7351 10.584C24.9143 10.584 24.2489 11.2494 24.2489 12.0701V17.1478C24.2489 17.4214 24.0271 17.6432 23.7535 17.6432L21.0289 17.6432C20.7554 17.6432 20.5336 17.4214 20.5336 17.1478V12.0701ZM23.7535 24.0832C24.0271 24.0832 24.2489 23.8614 24.2489 23.5878V21.1109C24.2489 20.8373 24.0271 20.6155 23.7535 20.6155H21.0289C20.7554 20.6155 20.5336 20.8373 20.5336 21.1109V23.5878C20.5336 23.8614 20.7554 24.0832 21.0289 24.0832H23.7535Z" fill="#D7E3FF"/>
</g>
<defs>
<clipPath id="clip0_623_1358">
<rect width="26.7508" height="26.7508" fill="white" transform="translate(8.77319 8.72656)"/>
</clipPath>
</defs>
</svg>
