<svg width="44" height="44" viewBox="0 0 44 44" fill="none" xmlns="http://www.w3.org/2000/svg">
<rect x="0.62915" y="0.658203" width="42.5105" height="42.5105" rx="21.2552" fill="#586FEB"/>
<path d="M20.4127 11.0381C20.7989 9.50971 22.9704 9.50971 23.3566 11.0381L24.2075 14.4054C24.4393 15.3227 25.4446 15.8069 26.3064 15.4162L29.4696 13.9819C30.9053 13.331 32.2592 15.0287 31.3051 16.2836L29.2029 19.0483C28.6302 19.8015 28.8785 20.8894 29.7213 21.3195L32.8148 22.8984C34.219 23.615 33.7357 25.7321 32.1597 25.7685L28.6875 25.8487C27.7416 25.8706 27.0459 26.743 27.235 27.6701L27.9294 31.0731C28.2446 32.6177 26.2882 33.5599 25.2771 32.3504L23.0494 29.6858C22.4425 28.9598 21.3267 28.9598 20.7198 29.6858L18.4922 32.3504C17.4811 33.5599 15.5246 32.6177 15.8398 31.0731L16.5342 27.6701C16.7234 26.743 16.0276 25.8706 15.0817 25.8487L11.6095 25.7685C10.0335 25.7321 9.55029 23.615 10.9544 22.8984L14.0479 21.3195C14.8907 20.8894 15.139 19.8015 14.5663 19.0483L12.4642 16.2836C11.51 15.0287 12.864 13.331 14.2997 13.9819L17.4629 15.4162C18.3246 15.8069 19.33 15.3227 19.5618 14.4054L20.4127 11.0381Z" fill="#D7E3FF"/>
</svg>
