<svg width="44" height="44" viewBox="0 0 44 44" fill="none" xmlns="http://www.w3.org/2000/svg">
<rect x="0.615479" y="0.658203" width="42.5105" height="42.5105" rx="21.2552" fill="#D7E3FF"/>
<path d="M20.3995 11.0381C20.7857 9.50971 22.9572 9.50971 23.3434 11.0381L24.1943 14.4054C24.4261 15.3227 25.4314 15.8069 26.2932 15.4162L29.4564 13.9819C30.8921 13.331 32.246 15.0287 31.2919 16.2836L29.1897 19.0483C28.617 19.8015 28.8653 20.8894 29.7081 21.3195L32.8017 22.8984C34.2058 23.615 33.7226 25.7321 32.1466 25.7685L28.6744 25.8487C27.7284 25.8706 27.0327 26.743 27.2219 27.6701L27.9163 31.0731C28.2314 32.6177 26.275 33.5599 25.2639 32.3504L23.0362 29.6858C22.4294 28.9598 21.3135 28.9598 20.7066 29.6858L18.479 32.3504C17.4679 33.5599 15.5114 32.6177 15.8266 31.0731L16.521 27.6701C16.7102 26.743 16.0145 25.8706 15.0685 25.8487L11.5963 25.7685C10.0203 25.7321 9.5371 23.615 10.9412 22.8984L14.0348 21.3195C14.8775 20.8894 15.1258 19.8015 14.5531 19.0483L12.451 16.2836C11.4969 15.0287 12.8508 13.331 14.2865 13.9819L17.4497 15.4162C18.3114 15.8069 19.3168 15.3227 19.5486 14.4054L20.3995 11.0381Z" fill="#586FEB"/>
</svg>
