<svg width="43" height="44" viewBox="0 0 43 44" fill="none" xmlns="http://www.w3.org/2000/svg">
<rect x="0.440918" y="0.658203" width="42.5105" height="42.5105" rx="21.2552" fill="#D7E3FF"/>
<path d="M34.9179 21.9136L21.6966 35.1349C19.0817 35.1349 16.5255 34.3595 14.3513 32.9067C12.177 31.454 10.4824 29.3891 9.48176 26.9732C8.48107 24.5573 8.21925 21.899 8.72939 19.3343C9.23954 16.7696 10.4987 14.4138 12.3478 12.5648C14.1968 10.7158 16.5526 9.45658 19.1173 8.94643C21.6819 8.43629 24.3403 8.69811 26.7562 9.6988C29.172 10.6995 31.2369 12.3941 32.6897 14.5683C34.1425 16.7425 34.9179 19.2987 34.9179 21.9136Z" stroke="#586FEB" stroke-width="2.27735" stroke-linecap="round" stroke-linejoin="round"/>
<path d="M21.6964 35.1351C21.117 33.6896 20.8513 32.1374 20.917 30.5815C20.9284 28.0836 21.9288 25.6919 23.6992 23.9298C25.4697 22.1677 27.866 21.1787 30.3639 21.1791C31.9195 21.1197 33.4704 21.3851 34.9176 21.9584" stroke="#586FEB" stroke-width="2.27735" stroke-linecap="round" stroke-linejoin="round"/>
</svg>
