<svg width="43" height="44" viewBox="0 0 43 44" fill="none" xmlns="http://www.w3.org/2000/svg">
<rect x="0.441895" y="0.658203" width="42.5105" height="42.5105" rx="21.2552" fill="#586FEB"/>
<path d="M34.9181 21.9136L21.6968 35.1349C19.0819 35.1349 16.5257 34.3595 14.3515 32.9067C12.1773 31.454 10.4827 29.3891 9.482 26.9732C8.48131 24.5573 8.21949 21.899 8.72963 19.3343C9.23978 16.7696 10.499 14.4138 12.348 12.5648C14.197 10.7158 16.5528 9.45658 19.1175 8.94643C21.6822 8.43629 24.3405 8.69811 26.7564 9.6988C29.1723 10.6995 31.2372 12.3941 32.6899 14.5683C34.1427 16.7425 34.9181 19.2987 34.9181 21.9136Z" stroke="white" stroke-width="2.27735" stroke-linecap="round" stroke-linejoin="round"/>
<path d="M21.6968 35.1351C21.1175 33.6896 20.8518 32.1374 20.9175 30.5815C20.9289 28.0836 21.9293 25.6919 23.6997 23.9298C25.4702 22.1677 27.8665 21.1787 30.3644 21.1791C31.92 21.1197 33.4708 21.3851 34.9181 21.9584" stroke="white" stroke-width="2.27735" stroke-linecap="round" stroke-linejoin="round"/>
</svg>
